# Blender v2.93.0 OBJ File: 'JetEngine_WebTest.blend'
# www.blender.org
mtllib WebTest.mtl
o FX_JetEngine_AirFlow_Hot_02_Cube.008
v -0.005844 2.793600 -7.843997
v -0.005844 5.631753 -7.843997
v -0.005845 2.793599 -12.038054
v -0.005845 5.631753 -12.038055
v -0.005843 5.941237 -6.324719
v -0.005843 2.521631 -6.324718
v -0.005845 4.212676 -12.038055
v -0.005844 4.212677 -7.843997
v -0.005843 4.231434 -6.324718
vt 0.746004 0.500000
vt 0.746004 0.000000
vt 1.314087 0.000000
vt 1.314087 0.500000
vt 2.767892 0.000000
vt 2.767892 0.500000
vt 1.314087 1.000000
vt 2.767893 1.000000
vt 0.746004 1.000000
vn 1.0000 0.0000 -0.0000
usemtl AirFlow_Hot
s 1
f 9/1/1 6/2/1 1/3/1 8/4/1
f 8/4/1 1/3/1 3/5/1 7/6/1
f 2/7/1 8/4/1 7/6/1 4/8/1
f 5/9/1 9/1/1 8/4/1 2/7/1
o FX_JetEngine_AirFlow_Hot_01_Cube.007
v -0.005842 3.330130 -3.869114
v -0.005842 5.179018 -3.869115
v -0.005843 2.785183 -4.669383
v -0.005843 5.689958 -4.669383
v -0.005843 2.537544 -5.239859
v -0.005843 5.937597 -5.239859
v -0.005843 2.432644 -5.827621
v -0.005843 6.042497 -5.827622
v -0.005842 5.163435 -3.432833
v -0.005842 3.372508 -3.432833
v -0.005843 5.941237 -6.324719
v -0.005843 2.521631 -6.324718
v -0.005843 4.237571 -4.669383
v -0.005842 4.254574 -3.869115
v -0.005843 4.237571 -5.239859
v -0.005843 4.237571 -5.827621
v -0.005842 4.267971 -3.432833
v -0.005843 4.231434 -6.324718
vt -0.282721 0.500000
vt -0.282721 0.000000
vt -0.152487 0.000000
vt -0.152487 0.500000
vt 0.179876 0.000000
vt 0.179876 0.500000
vt 0.395451 0.000000
vt 0.395451 0.500000
vt 0.602409 0.000000
vt 0.602409 0.500000
vt 0.746004 0.000000
vt 0.746004 0.500000
vt 0.602409 1.000000
vt 0.746004 1.000000
vt 0.395451 1.000000
vt 0.179876 1.000000
vt -0.152487 1.000000
vt -0.282721 1.000000
vn 1.0000 0.0000 -0.0000
usemtl AirFlow_Hot
s 1
f 26/10/2 19/11/2 10/12/2 23/13/2
f 23/13/2 10/12/2 12/14/2 22/15/2
f 22/15/2 12/14/2 14/16/2 24/17/2
f 24/17/2 14/16/2 16/18/2 25/19/2
f 25/19/2 16/18/2 21/20/2 27/21/2
f 17/22/2 25/19/2 27/21/2 20/23/2
f 15/24/2 24/17/2 25/19/2 17/22/2
f 13/25/2 22/15/2 24/17/2 15/24/2
f 11/26/2 23/13/2 22/15/2 13/25/2
f 18/27/2 26/10/2 23/13/2 11/26/2
o FX_JetEngine_AirFlow_Warm_Cube.005
v -0.005841 3.265500 -1.163736
v -0.005841 5.225812 -1.163737
v -0.005841 5.323959 -0.553090
v -0.005841 3.155301 -0.553090
v -0.005841 5.762362 0.707619
v -0.005841 2.777846 0.707621
v -0.005842 3.397592 -1.974192
v -0.005842 5.147851 -1.974192
v -0.005842 3.414885 -3.120409
v -0.005842 5.147851 -3.120409
v -0.005841 2.966574 0.077266
v -0.005841 5.543160 0.077265
v -0.005842 5.163435 -3.432833
v -0.005842 3.372508 -3.432833
v -0.005841 4.239630 -0.553090
v -0.005842 4.281368 -3.120409
v -0.005841 4.270104 0.707620
v -0.005841 4.245656 -1.163737
v -0.005842 4.272721 -1.974192
v -0.005841 4.254867 0.077265
v -0.005842 4.267971 -3.432833
vt -1.093731 0.500000
vt -1.093731 1.000000
vt -1.308470 1.000000
vt -1.308470 0.500000
vt -1.538182 0.500000
vt -1.538182 1.000000
vt -1.767893 1.000000
vt -1.767893 0.500000
vt -1.093731 0.000000
vt -0.810297 0.000000
vt -0.810297 0.500000
vt -0.412956 0.000000
vt -0.412956 0.500000
vt -0.282721 0.000000
vt -0.282721 0.500000
vt -0.412956 1.000000
vt -0.282721 1.000000
vt -1.308470 0.000000
vt -1.538182 0.000000
vt -0.810297 1.000000
vt -1.767893 0.000000
vn 1.0000 0.0000 -0.0000
usemtl AirFlow_Hot
s 1
f 45/28/3 29/29/3 30/30/3 42/31/3
f 47/32/3 39/33/3 32/34/3 44/35/3
f 45/28/3 28/36/3 34/37/3 46/38/3
f 46/38/3 34/37/3 36/39/3 43/40/3
f 42/31/3 30/30/3 39/33/3 47/32/3
f 43/40/3 36/39/3 41/41/3 48/42/3
f 37/43/3 43/40/3 48/42/3 40/44/3
f 31/45/3 42/31/3 47/32/3 38/46/3
f 35/47/3 46/38/3 43/40/3 37/43/3
f 29/29/3 45/28/3 46/38/3 35/47/3
f 38/46/3 47/32/3 44/35/3 33/48/3
f 28/36/3 45/28/3 42/31/3 31/45/3
o FX_JetEngine_AirFlow_Cool_Cube.003
v -0.003214 4.219048 3.936544
v -0.003213 4.367493 4.735888
v -0.003214 1.241060 4.577257
v -0.003214 1.341478 3.878331
v -0.003213 4.426434 5.416114
v -0.003213 4.511572 6.480550
v -0.003213 0.363489 6.522756
v -0.003213 0.933255 5.322974
v -0.003213 4.586668 7.634925
v -0.003213 -0.364763 7.633471
v -0.003214 1.411253 1.933998
v -0.003214 3.200310 1.963104
v -0.003215 1.432552 1.315058
v -0.003215 1.423976 0.818771
v -0.003215 2.975128 0.842946
v -0.003215 3.045893 1.328403
v -0.021822 1.428401 -0.901840
v -0.053672 1.389866 -1.539144
v -0.003215 3.192858 -1.409732
v -0.003215 3.180025 -0.638414
v -0.003215 1.431642 -0.147155
v -0.003215 2.997402 0.132906
v -0.040431 0.884771 -2.765104
v -0.003216 3.200706 -2.813224
v -0.038936 0.861741 -4.629880
v -0.003217 2.677354 -4.676205
v -0.040432 0.956724 -5.132267
v -0.003217 2.438436 -5.088551
v -0.040432 1.121983 -5.795660
v -0.003217 2.319583 -5.749517
v -0.040432 1.489456 -7.663346
v -0.003218 2.716163 -7.893718
v -0.040434 1.432511 -12.061129
v -0.003219 2.808244 -12.052710
v -0.012519 2.304213 -0.770127
v -0.021825 2.102809 -7.778533
v -0.021824 1.720783 -5.772589
v -0.021826 2.120378 -12.056919
v -0.021823 1.968246 -2.784846
v -0.003213 2.804276 4.656573
v -0.003214 2.780263 3.907437
v -0.003213 2.110952 7.634198
v -0.021824 1.750720 -4.646730
v -0.003215 2.214522 -0.007125
v -0.003215 2.199552 0.830858
v -0.003214 2.305782 1.948551
v -0.003215 2.239223 1.321731
v -0.003213 2.437531 6.501653
v -0.003213 2.679844 5.369544
v -0.021823 2.309009 -1.469978
v -0.021824 1.697580 -5.110409
v -0.003214 4.225882 3.936544
v -0.003214 6.815293 3.878330
v -0.003213 6.662483 5.136107
v -0.003213 4.077437 5.128830
v -0.003213 4.018496 5.573291
v -0.003213 6.751987 5.576202
v -0.003213 6.902614 6.016296
v -0.003213 3.994482 6.017753
v -0.003213 7.508617 7.633470
v -0.003213 3.858263 7.634925
v -0.003214 5.273726 1.963104
v -0.003214 7.208315 1.933997
v -0.003215 7.303444 1.315057
v -0.003215 5.442695 1.328403
v -0.003215 5.469800 0.842945
v -0.003215 7.377510 0.818770
v -0.003215 7.455952 -0.147156
v -0.003215 5.477852 0.132905
v -0.003216 5.227642 -1.925612
v -0.040431 7.454435 -1.765098
v -0.003217 5.767571 -4.676205
v -0.040431 7.053257 -4.609181
v -0.003217 6.028320 -5.088551
v -0.040432 6.949725 -5.146822
v -0.003217 6.125343 -5.749518
v -0.040432 6.799020 -5.795661
v -0.003218 5.634166 -7.908272
v -0.040433 6.307842 -7.954415
v -0.003219 5.636680 -12.052711
v -0.040434 6.310357 -12.061130
v -0.003216 5.499767 -4.280001
v -0.003216 5.234608 -3.493207
v -0.040431 7.253142 -3.436069
v -0.040431 7.126827 -4.233967
v -0.003213 5.683441 7.634197
v -0.021824 6.410414 -4.642693
v -0.021824 6.489022 -5.117686
v -0.003213 5.369960 5.132468
v -0.003215 6.466902 -0.007126
v -0.003214 6.241021 1.948550
v -0.021824 6.462181 -5.772590
v -0.003213 5.385242 5.574746
v -0.021823 6.341038 -1.845355
v -0.003215 6.373070 1.321730
v -0.021825 5.971004 -7.931343
v -0.003213 5.448548 6.017024
v -0.003215 6.423655 0.830857
v -0.021826 5.973518 -12.056920
v -0.003214 5.520587 3.907437
v -0.021824 6.313297 -4.256984
v -0.021824 6.243875 -3.464638
v -0.003217 6.094318 -5.419034
v -0.040432 6.874372 -5.471241
v -0.021824 6.493088 -5.445138
v -0.003213 3.926373 6.826339
v -0.003213 7.205616 6.824883
v -0.003213 5.565994 6.825611
v -0.040431 1.080473 -2.124637
v -0.003216 3.196782 -2.220553
v -0.021823 2.138627 -2.131948
v -0.040431 0.761631 -4.165353
v -0.040431 0.758241 -3.548880
v -0.003216 3.206308 -3.582075
v -0.003216 3.002125 -4.195722
v -0.021824 1.961312 -3.565193
v -0.021824 1.871070 -4.180397
vt -1.635462 0.500000
vt -1.895852 0.500000
vt -1.895852 0.000000
vt -1.635462 0.000000
vt -2.151170 0.500000
vt -2.561873 0.500000
vt -2.561873 0.000000
vt -2.151170 0.000000
vt -2.987824 0.500000
vt -2.987824 0.000000
vt -0.921290 0.500000
vt -0.921290 1.000000
vt -1.635461 1.000000
vt -0.703167 0.500000
vt -0.533995 0.500000
vt -0.533995 1.000000
vt -0.703167 1.000000
vt 0.018614 0.500000
vt 0.280244 0.500000
vt 0.280244 1.000000
vt 0.018614 1.000000
vt -0.246654 0.500000
vt -0.246654 1.000000
vt 1.230044 1.000000
vt 1.239097 0.500000
vt 1.400984 0.500000
vt 1.400984 1.000000
vt 1.588525 0.500000
vt 1.588525 1.000000
vt 1.820825 0.500000
vt 1.820825 1.000000
vt 2.520872 0.500000
vt 2.520872 1.000000
vt 3.987824 0.500000
vt 3.987824 1.000000
vt 0.486189 0.500000
vt 0.692135 0.500000
vt 0.692135 1.000000
vt 0.486189 1.000000
vt 0.486189 0.000000
vt 0.692135 0.000000
vt -0.246654 0.000000
vt 0.018614 0.000000
vt 2.520872 0.000000
vt 3.987824 0.000000
vt 1.820825 0.000000
vt 1.588525 0.000000
vt 1.400984 0.000000
vt 0.999864 0.500000
vt 0.998547 1.000000
vt 1.249790 0.000000
vt -0.533995 0.000000
vt 0.280244 0.000000
vt -0.921290 0.000000
vt -0.703167 0.000000
vt -2.561873 1.000000
vt -2.987824 1.000000
vt -1.895852 1.000000
vt -2.151170 1.000000
vt -2.005023 0.500000
vt -2.005023 0.000000
vt -2.498342 0.000000
vt -2.498342 0.500000
vt -2.677693 0.500000
vt -2.677693 0.000000
vt -2.859604 0.000001
vt -2.859604 0.500000
vt -3.194333 0.500000
vt -3.194333 0.000001
vt -3.529061 0.000001
vt -3.529061 0.500000
vt -2.005023 1.000000
vt -1.162075 1.000000
vt -1.162075 0.500000
vt -0.905672 0.500000
vt -0.905672 1.000000
vt -0.708227 1.000000
vt -0.708227 0.500000
vt -0.372650 0.500000
vt -0.372650 1.000000
vt 0.365181 1.000000
vt 0.365181 0.500000
vt 1.350029 0.500000
vt 1.521696 0.500000
vt 1.521696 0.000000
vt 1.353458 0.000000
vt 1.521696 1.000000
vt 1.728612 1.000000
vt 1.728612 0.500000
vt 1.861924 0.500000
vt 1.861924 1.000000
vt 1.995237 1.000000
vt 1.995237 0.500000
vt 2.880117 1.000000
vt 2.880117 0.500000
vt 4.529061 0.999999
vt 4.529061 0.500000
vt 1.018558 0.000000
vt 1.014692 0.500000
vt 1.010826 1.000000
vt 0.365181 0.000000
vt 1.346599 1.000000
vt 2.880117 0.000000
vt 4.529061 0.000001
vt 1.995237 0.000000
vt 1.861924 0.000000
vt 1.728612 0.000000
vt -0.708227 0.000000
vt -0.372650 0.000000
vt -1.162075 0.000000
vt -0.905672 0.000000
vt -3.194333 0.999999
vt -3.529061 0.999999
vt -2.498342 1.000000
vt -2.677693 1.000000
vt -2.859604 0.999999
vt 1.000425 0.000000
vn 1.0000 0.0000 -0.0000
vn 0.9998 -0.0103 -0.0177
vn 0.9997 -0.0174 -0.0189
vn 0.9999 -0.0151 -0.0065
vn 0.9999 -0.0097 -0.0067
vn 1.0000 0.0047 -0.0051
vn 1.0000 -0.0012 0.0031
vn 0.9999 -0.0164 0.0054
vn 0.9998 -0.0169 0.0040
vn 0.9998 -0.0188 0.0046
vn 0.9998 -0.0182 0.0091
vn 0.9997 -0.0248 0.0037
vn 0.9997 -0.0217 0.0072
vn 0.9995 -0.0306 -0.0025
vn 0.9996 -0.0294 -0.0018
vn 0.9996 -0.0268 -0.0036
vn 0.9996 -0.0284 0.0003
vn 0.9996 -0.0286 -0.0001
vn 0.9996 -0.0286 -0.0004
vn 0.9998 -0.0199 0.0073
vn 0.9999 -0.0155 0.0024
vn 0.9999 -0.0156 0.0011
vn 0.9998 -0.0175 0.0022
vn 0.9997 -0.0206 0.0107
vn 0.9999 -0.0165 0.0013
vn 0.9999 -0.0034 -0.0167
vn 0.9995 -0.0174 -0.0247
vn 0.9995 -0.0314 -0.0063
vn 0.9996 -0.0286 0.0001
vn 0.9996 -0.0277 -0.0023
vn 0.9998 -0.0219 -0.0013
vn 0.9998 -0.0182 -0.0006
vn 0.9999 -0.0157 0.0016
vn 0.9999 -0.0153 0.0017
vn 0.9999 -0.0169 0.0015
vn 0.9994 -0.0195 -0.0303
vn 1.0000 -0.0025 -0.0044
vn 1.0000 0.0001 0.0029
vn 0.9999 0.0166 -0.0041
vn 0.9999 0.0108 -0.0083
vn 0.9997 0.0228 0.0043
vn 0.9995 0.0323 0.0062
vn 0.9996 0.0272 0.0022
vn 0.9997 0.0226 -0.0001
vn 0.9996 0.0266 0.0096
vn 0.9994 0.0337 0.0129
vn 0.9994 0.0337 0.0050
vn 0.9990 0.0440 -0.0021
vn 0.9989 0.0466 0.0026
vn 0.9988 0.0491 -0.0005
vn 0.9986 0.0532 -0.0017
vn 0.9985 0.0546 0.0002
vn 0.9984 0.0560 -0.0001
vn 0.9985 0.0552 0.0000
vn 0.9998 0.0189 -0.0012
vn 0.9998 0.0190 0.0004
vn 0.9998 0.0188 0.0017
vn 0.9999 0.0095 -0.0085
vn 0.9997 0.0220 0.0069
vn 0.9985 0.0534 -0.0123
vn 0.9988 0.0487 -0.0048
vn 0.9991 0.0433 -0.0011
vn 0.9994 0.0337 -0.0008
vn 0.9999 0.0091 -0.0145
vn 0.9990 0.0438 -0.0048
vn 0.9990 0.0437 0.0001
vn 0.9990 0.0436 0.0046
vn 0.9994 -0.0262 0.0207
vn 0.9997 -0.0219 0.0095
vn 0.9998 -0.0191 0.0022
vn 0.9999 -0.0162 0.0013
usemtl AirFlow_Cold
s 1
f 89/49/4 88/50/4 51/51/4 52/52/4
f 97/53/4 96/54/4 55/55/4 56/56/4
f 88/50/4 97/53/4 56/56/4 51/51/4
f 96/54/4 90/57/4 58/58/4 55/55/4
f 89/49/4 94/59/4 60/60/4 49/61/4
f 95/62/4 93/63/4 63/64/4 64/65/4
f 94/59/4 95/62/4 64/65/4 60/60/4
f 83/66/5 98/67/6 67/68/7 68/69/8
f 93/63/4 92/70/9 70/71/10 63/64/4
f 163/72/11 165/73/12 91/74/13 74/75/14
f 91/74/13 99/76/15 76/77/16 74/75/14
f 99/76/15 85/78/17 78/79/18 76/77/16
f 85/78/17 84/80/19 80/81/20 78/79/18
f 84/80/19 86/82/21 82/83/22 80/81/20
f 92/70/9 83/66/5 68/69/8 70/71/10
f 159/84/23 87/85/24 72/86/25 158/87/26
f 157/88/27 71/89/28 87/85/24 159/84/23
f 69/90/29 65/91/30 83/66/5 92/70/9
f 79/92/31 81/93/32 86/82/21 84/80/19
f 77/94/33 79/92/31 84/80/19 85/78/17
f 75/95/34 77/94/33 85/78/17 99/76/15
f 73/96/35 75/95/34 99/76/15 91/74/13
f 87/85/24 164/97/36 162/98/37 72/86/25
f 165/73/12 160/99/38 73/96/35 91/74/13
f 62/100/4 69/90/29 92/70/9 93/63/4
f 65/91/30 66/101/39 98/67/6 83/66/5
f 59/102/4 61/103/4 95/62/4 94/59/4
f 61/103/4 62/100/4 93/63/4 95/62/4
f 52/52/4 59/102/4 94/59/4 89/49/4
f 54/104/4 57/105/4 90/57/4 96/54/4
f 50/106/4 53/107/4 97/53/4 88/50/4
f 53/107/4 54/104/4 96/54/4 97/53/4
f 49/61/4 50/106/4 88/50/4 89/49/4
f 148/108/4 101/109/4 102/110/4 137/111/4
f 141/112/4 105/113/4 106/114/4 145/115/4
f 137/111/4 102/110/4 105/113/4 141/112/4
f 156/116/4 155/117/4 108/118/4 134/119/4
f 148/108/4 100/120/4 110/121/4 139/122/4
f 143/123/4 113/124/4 114/125/4 146/126/4
f 139/122/4 110/121/4 113/124/4 143/123/4
f 138/127/40 117/128/41 118/129/42 142/130/43
f 146/126/4 114/125/4 117/128/41 138/127/40
f 149/131/44 135/132/45 121/133/46 133/134/47
f 135/132/45 120/135/48 122/136/49 136/137/50
f 153/138/51 151/139/52 124/140/53 140/141/54
f 140/141/54 124/140/53 126/142/55 144/143/56
f 144/143/56 126/142/55 128/144/57 147/145/57
f 149/131/44 133/134/47 132/146/58 150/147/59
f 142/130/43 118/129/42 131/148/60 150/147/59
f 119/149/61 142/130/43 150/147/59 132/146/58
f 130/150/62 149/131/44 150/147/59 131/148/60
f 127/151/63 144/143/56 147/145/57 129/152/57
f 125/153/64 140/141/54 144/143/56 127/151/63
f 152/154/65 153/138/51 140/141/54 125/153/64
f 121/133/46 135/132/45 136/137/50 123/155/66
f 130/150/62 120/135/48 135/132/45 149/131/44
f 115/156/4 146/126/4 138/127/40 116/157/67
f 116/157/67 138/127/40 142/130/43 119/149/61
f 111/158/4 139/122/4 143/123/4 112/159/4
f 112/159/4 143/123/4 146/126/4 115/156/4
f 101/109/4 148/108/4 139/122/4 111/158/4
f 154/160/4 156/116/4 134/119/4 109/161/4
f 103/162/4 137/111/4 141/112/4 104/163/4
f 104/163/4 141/112/4 145/115/4 107/164/4
f 100/120/4 148/108/4 137/111/4 103/162/4
f 123/155/68 136/137/69 153/138/51 152/154/65
f 136/137/69 122/136/70 151/139/52 153/138/51
f 107/164/4 145/115/4 156/116/4 154/160/4
f 145/115/4 106/114/4 155/117/4 156/116/4
f 66/101/71 157/88/27 159/84/23 98/67/72
f 98/67/72 159/84/23 158/87/26 67/68/73
f 165/73/12 163/72/11 162/98/37 164/97/36
f 160/99/38 165/73/12 164/97/36 161/165/74
f 71/89/28 161/165/74 164/97/36 87/85/24
